<!-- icon666.com - MILLIONS OF FREE VECTOR ICONS --><svg viewBox="0 0 64 64" xmlns="http://www.w3.org/2000/svg"><g id="Filled_outline" data-name="Filled outline"><path d="m40 29a2 2 0 0 1 -2-2v-11a13 13 0 0 0 -13-13 13 13 0 0 0 -13 13v11a2 2 0 0 1 -2 2h-2a4 4 0 0 0 4 4h26a4 4 0 0 0 4-4z" fill="#394d5c" style="fill: rgb(66, 124, 65);"></path><path d="m36 61h-22v-24h21 1z" fill="#394d5c" style="fill: rgb(66, 124, 65);"></path><path d="m12 37h2a0 0 0 0 1 0 0v24a0 0 0 0 1 0 0h-6a0 0 0 0 1 0 0v-20a4 4 0 0 1 4-4z" fill="#ffd782" style="fill: rgb(253, 241, 216);"></path><path d="m19 37h12a0 0 0 0 1 0 0v3a6 6 0 0 1 -6 6 6 6 0 0 1 -6-6v-3a0 0 0 0 1 0 0z" fill="#ffd782" style="fill: rgb(253, 241, 216);"></path><path d="m14 55h22v6h-22z" fill="#143441" style="fill: rgb(255, 239, 204);"></path><path d="m51 34v-3a4 4 0 0 0 -4 4v3l-4 4-7-5v8l7 5 8-8 3-5c.822-1.644-1.162-3-3-3z" fill="#ffd782" style="fill: rgb(253, 241, 216);"></path><path d="m16 17a0 0 0 0 1 0 0v8a0 0 0 0 1 0 0 4 4 0 0 1 -4-4 4 4 0 0 1 4-4z" fill="#f9bb4b" style="fill: rgb(255, 225, 209);"></path><path d="m38 17a0 0 0 0 1 0 0v8a0 0 0 0 1 0 0 4 4 0 0 1 -4-4 4 4 0 0 1 4-4z" fill="#f9bb4b" transform="matrix(-1 0 0 -1 72 42)" style="fill: rgb(255, 225, 209);"></path><path d="m27 15a8.76 8.76 0 0 0 -2-6 8.76 8.76 0 0 0 -2 6h-7v12a5.735 5.735 0 0 0 6 6h6a5.735 5.735 0 0 0 6-6v-12z" fill="#ffd782" style="fill: rgb(253, 241, 216);"></path><path d="m47 16h8a0 0 0 0 1 0 0v5a4 4 0 0 1 -4 4 4 4 0 0 1 -4-4v-5a0 0 0 0 1 0 0z" fill="#e33e5c" style="fill: rgb(209, 61, 88);"></path><path d="m51 34s5 1.985 5-5c0 0-5-.538-5 5z" fill="#55b56a"></path><path d="m19 18h2v2h-2z" fill="#000000" style="fill: rgb(91, 32, 32);"></path><path d="m29 18h2v2h-2z" fill="#000000" style="fill: rgb(91, 32, 32);"></path><path d="m24 20h2v4h-2z" fill="#000000" style="fill: rgb(91, 32, 32);"></path><path d="m25 2a14.015 14.015 0 0 0 -14 14v11a1 1 0 0 1 -1 1h-2a1 1 0 0 0 -1 1 5.006 5.006 0 0 0 5 5h26a5.006 5.006 0 0 0 5-5 1 1 0 0 0 -1-1h-2a1 1 0 0 1 -1-1v-11a14.015 14.015 0 0 0 -14-14zm-12 14a12 12 0 0 1 24 0v1.026a4.954 4.954 0 0 0 -2-.925v-1.101a1 1 0 0 0 -1-1h-6.04a9.4 9.4 0 0 0 -2.253-5.707 1.029 1.029 0 0 0 -1.414 0 9.4 9.4 0 0 0 -2.253 5.707h-6.04a1 1 0 0 0 -1 1v1.1a4.954 4.954 0 0 0 -2 .925zm24 5a3.006 3.006 0 0 1 -2 2.829v-5.658a3.006 3.006 0 0 1 2 2.829zm-22-2.829v5.658a3 3 0 0 1 0-5.658zm-3 13.829a3.006 3.006 0 0 1 -2.829-2h.829a3 3 0 0 0 3-3v-2.026a4.954 4.954 0 0 0 2 .925v1.101a7 7 0 0 0 1.913 5zm21-5a4.733 4.733 0 0 1 -5 5h-6a4.733 4.733 0 0 1 -5-5v-11h6a1 1 0 0 0 1-1 8.87 8.87 0 0 1 1-4.266 8.88 8.88 0 0 1 1 4.266 1 1 0 0 0 1 1h6zm7 3h.829a3.006 3.006 0 0 1 -2.829 2h-4.913a7 7 0 0 0 1.913-5v-1.1a4.954 4.954 0 0 0 2-.925v2.025a3 3 0 0 0 3 3z" fill="#000000" style="fill: rgb(91, 32, 32);"></path><path d="m19 22h2v4h-2z" fill="#000000" style="fill: rgb(91, 32, 32);"></path><path d="m29 22h2v4h-2z" fill="#000000" style="fill: rgb(91, 32, 32);"></path><path d="m21 30h2a2 2 0 0 1 4 0h2a4 4 0 0 0 -8 0z" fill="#000000" style="fill: rgb(91, 32, 32);"></path><path d="m57 29a1 1 0 0 0 -.893-.994 6.187 6.187 0 0 0 -4.107 1.185v-3.291a5.009 5.009 0 0 0 4-4.9v-5a1 1 0 0 0 -1-1h-8a1 1 0 0 0 -1 1v5a5.009 5.009 0 0 0 4 4.9v4.2a5.009 5.009 0 0 0 -4 4.9v2.586l-3.108 3.108-6.322-4.494a.973.973 0 0 0 -.57-.2h-24a5.006 5.006 0 0 0 -5 5v20a1 1 0 0 0 1 1h28a1 1 0 0 0 1-1v-14.057l5.419 3.871a1 1 0 0 0 1.288-.107l6.293-6.293v3.586h2v-5.723l2.9-4.83a2.561 2.561 0 0 0 -.1-2.574c-.04-.066-.1-.121-.149-.185.068-.04.137-.068.2-.114 1.425-.974 2.149-2.845 2.149-5.574zm-44 31h-4v-19a3 3 0 0 1 3-3h1zm7-22h10v2a5 5 0 0 1 -10 0zm15 22h-20v-4h20zm0-6h-20v-16h3v2a7 7 0 0 0 14 0v-2h3zm15-12.414-7.108 7.108-5.892-4.209v-5.542l5.419 3.871a1 1 0 0 0 1.288-.107l4-4a1 1 0 0 0 .293-.707v-3a3.006 3.006 0 0 1 2-2.829zm4-20.586a2.972 2.972 0 0 1 -.251 1.194l-1.649-1.882 1.9-1.9zm-1.414-4-1.8 1.8-1.586-1.8zm-1.586 7a3 3 0 0 1 -3-3v-2.339l4.369 4.993a2.963 2.963 0 0 1 -1.369.346zm2.143 12.485-1.143 1.905v-3.158c.059.005.118.011.18.015a1.936 1.936 0 0 1 .911.677.548.548 0 0 1 .052.561zm.59-3.572a2.127 2.127 0 0 1 -1.206.342c-.155-.048-.307-.1-.467-.137a3.189 3.189 0 0 1 2.895-3.079 3.781 3.781 0 0 1 -1.222 2.874z" fill="#000000" style="fill: rgb(91, 32, 32);"></path></g></svg>